<?xml version="1.0" standalone="no"?>
<!DOCTYPE svg PUBLIC "-//W3C//DTD SVG 20010904//EN"
 "http://www.w3.org/TR/2001/REC-SVG-20010904/DTD/svg10.dtd">
<svg version="1.0" xmlns="http://www.w3.org/2000/svg"
 width="512.000000pt" height="512.000000pt" viewBox="0 0 512.000000 512.000000"
 preserveAspectRatio="xMidYMid meet">
<metadata>
Created by potrace 1.16, written by Peter Selinger 2001-2019
</metadata>
<g transform="translate(0.000000,512.000000) scale(0.100000,-0.100000)"
fill="#000000" stroke="none">
<path d="M845 4919 c-332 -39 -602 -313 -645 -653 -14 -110 -14 -3302 0 -3412
22 -173 95 -322 219 -444 91 -89 190 -148 316 -187 l90 -28 1735 0 1735 0 90
28 c126 39 225 98 316 187 124 122 197 271 219 444 14 110 14 3302 0 3412 -44
347 -313 614 -657 654 -107 12 -3314 11 -3418 -1z m3435 -315 c111 -26 204
-93 271 -197 72 -112 69 -36 69 -1561 l0 -1366 -2060 0 -2060 0 0 1368 c0
1492 -2 1441 57 1541 62 105 162 184 272 213 61 16 193 17 1726 17 1456 1
1668 -1 1725 -15z"/>
</g>
</svg>
